<svg xmlns="http://www.w3.org/2000/svg" viewBox="0 0 900 650"><defs><linearGradient id="bg" x2="1" y2="1"><stop stop-color="#f4e9d8"/><stop offset="1" stop-color="#bca184"/></linearGradient></defs><rect width="900" height="650" fill="url(#bg)"/><circle cx="700" cy="130" r="140" fill="#fff7e8" opacity=".45"/><path d="M235 570 V290 A215 215 0 0 1 665 290 V570" fill="none" stroke="#f6eddf" stroke-width="32"/><path d="M280 570 V300 A170 170 0 0 1 620 300 V570" fill="#b18d70" opacity=".35"/><path d="M230 570 H670" stroke="#725245" stroke-width="9"/><g fill="none" stroke="#627154" stroke-width="9" stroke-linecap="round"><path d="M255 360 Q320 300 315 205"/><path d="M275 310 Q350 260 380 185"/><path d="M645 355 Q580 295 595 190"/><path d="M625 300 Q560 250 535 175"/></g><g fill="#f8f0e4" stroke="#c5a875" stroke-width="3"><circle cx="315" cy="205" r="35"/><circle cx="380" cy="185" r="32"/><circle cx="595" cy="190" r="38"/><circle cx="535" cy="175" r="32"/><circle cx="285" cy="285" r="26"/><circle cx="615" cy="280" r="27"/></g><g fill="#9e6268"><circle cx="350" cy="245" r="28"/><circle cx="565" cy="235" r="25"/><circle cx="300" cy="340" r="22"/><circle cx="610" cy="340" r="25"/></g><path d="M0 590 Q230 560 450 590 T900 580 V650 H0Z" fill="#f4ead9" opacity=".7"/></svg>